<svg xmlns="http://www.w3.org/2000/svg" width="110" height="110" viewBox="0 0 110 110">
  <g id="Group_9" data-name="Group 9" transform="translate(-1225 -1124)">
    <rect id="Rounded_Rectangle_528" data-name="Rounded Rectangle 528" width="110" height="110" rx="35" transform="translate(1225 1124)" fill="#e4ffee"/>
    <path id="Shape_1" data-name="Shape 1" d="M1304.479,1190.589l-.119-3.735a2.369,2.369,0,0,0-2.443-2.3l-.507.015a21.282,21.282,0,0,0-6.164-10.686l-.032-.03a21.364,21.364,0,0,0-6.489-4.206l6.549-.2a4.4,4.4,0,0,0,8.5-1.732,4.415,4.415,0,0,0-1.383-3.075,4.351,4.351,0,0,0-3.154-1.19,4.4,4.4,0,0,0-3.072,1.377,4.449,4.449,0,0,0-.986,1.668l-11.791.353-.013-.4a2.368,2.368,0,0,0-2.443-2.3l-3.774.105a2.357,2.357,0,0,0-2.292,2.438l.013.4-11.791.354a4.4,4.4,0,0,0-8.5,1.732,4.4,4.4,0,0,0,8.586,1.212l6.549-.2a21.451,21.451,0,0,0-11.712,15.653l-.63.019a2.377,2.377,0,0,0-2.3,2.446l.119,3.75a2.368,2.368,0,0,0,2.443,2.3l3.751-.112a2.378,2.378,0,0,0,2.3-2.446l-.119-3.751a2.367,2.367,0,0,0-2.443-2.3l-.108,0a18.527,18.527,0,0,1,14.207-14.366,2.271,2.271,0,0,0,.515.708,2.366,2.366,0,0,0,1.7.642l3.751-.112a2.37,2.37,0,0,0,2.122-1.48,18.6,18.6,0,0,1,15.093,13.488l-.231.007a2.378,2.378,0,0,0-2.3,2.446l.119,3.75a2.368,2.368,0,0,0,2.443,2.3l3.751-.112A2.354,2.354,0,0,0,1304.479,1190.589Zm-43.753.758-2.629.079-.084-2.629,2.629-.079Zm38.583-24.96a1.456,1.456,0,1,1-1.414,1.5h0a1.452,1.452,0,0,1,.4-1.042A1.472,1.472,0,0,1,1299.309,1166.387Zm-40.283,4.138a1.456,1.456,0,1,1,1.414-1.5A1.457,1.457,0,0,1,1259.025,1170.526Zm18.873-.719-.084-2.629,2.629-.079.042,1.307h0l.042,1.307Zm21.006,20.388-.084-2.629,2.629-.078.084,2.629Z" fill="#40975f"/>
  </g>
</svg>
