<?xml version="1.0" encoding="iso-8859-1"?>
<!-- Generator: Adobe Illustrator 16.0.0, SVG Export Plug-In . SVG Version: 6.00 Build 0)  -->
<!DOCTYPE svg PUBLIC "-//W3C//DTD SVG 1.1//EN" "http://www.w3.org/Graphics/SVG/1.1/DTD/svg11.dtd">
<svg xmlns="http://www.w3.org/2000/svg" xmlns:xlink="http://www.w3.org/1999/xlink" version="1.1" id="Capa_1" x="0px" y="0px" width="512px" height="512px" viewBox="0 0 508.044 508.044" style="enable-background:new 0 0 508.044 508.044;" xml:space="preserve">
<g>
	<g>
		<path d="M507.93,155.673c0-0.055,0.006-0.11,0.006-0.165c0-66.793-54.145-120.938-120.938-120.938S266.061,88.714,266.061,155.508    c0,66.794,54.15,120.938,120.938,120.938c13.727,0,26.867-2.393,39.162-6.609c-27.209,156.09-148.93,256.752-36.096,173.905    C515.182,351.874,508.07,159.198,507.93,155.673z" fill="#b06ab3"/>
		<path d="M120.938,276.445c13.727,0,26.867-2.393,39.168-6.609c-27.216,156.09-148.937,256.752-36.102,173.905    c125.117-91.867,118.006-284.543,117.865-288.068c0-0.055,0.006-0.11,0.006-0.165c0-66.793-54.144-120.938-120.937-120.938    C54.144,34.57,0,88.714,0,155.508C0,222.302,54.15,276.445,120.938,276.445z" fill="#b06ab3"/>
	</g>
</g>
<g>
</g>
<g>
</g>
<g>
</g>
<g>
</g>
<g>
</g>
<g>
</g>
<g>
</g>
<g>
</g>
<g>
</g>
<g>
</g>
<g>
</g>
<g>
</g>
<g>
</g>
<g>
</g>
<g>
</g>
</svg>
