<?xml version="1.0" encoding="iso-8859-1"?>
<!-- Generator: Adobe Illustrator 19.0.0, SVG Export Plug-In . SVG Version: 6.00 Build 0)  -->
<svg version="1.1" id="Layer_1" xmlns="http://www.w3.org/2000/svg" xmlns:xlink="http://www.w3.org/1999/xlink" x="0px" y="0px"
	 viewBox="0 0 512 512" style="enable-background:new 0 0 512 512;" xml:space="preserve">
<path style="fill:#A5C6E3;" d="M256,52.301L167.914,256L256,459.699c112.5,0,203.699-91.199,203.699-203.699
	S368.5,52.301,256,52.301z"/>
<path style="fill:#D2E3F1;" d="M52.301,256c0,112.5,91.199,203.699,203.699,203.699V52.301C143.5,52.301,52.301,143.5,52.301,256z"
	/>
<path style="fill:#4A8DC6;" d="M256,85.333v341.333c94.256,0,170.667-76.41,170.667-170.667S350.256,85.333,256,85.333z"/>
<path style="fill:#77AAD4;" d="M393.634,256c0-94.256-61.621-170.667-137.634-170.667c-94.256,0-170.667,76.41-170.667,170.667
	S161.744,426.667,256,426.667C332.014,426.667,393.634,350.256,393.634,256z"/>
<g>
	<path style="fill:#D2E3F1;" d="M256,27.527c-4.562,0-8.258-3.697-8.258-8.258V8.258C247.742,3.697,251.438,0,256,0
		s8.258,3.697,8.258,8.258v11.011C264.258,23.829,260.562,27.527,256,27.527z"/>
	<path style="fill:#D2E3F1;" d="M208.497,32.519c-4.462,0.948-8.846-1.899-9.794-6.361l-2.289-10.77
		c-0.948-4.462,1.899-8.846,6.361-9.794c4.462-0.948,8.846,1.899,9.794,6.361l2.289,10.77
		C215.806,27.187,212.959,31.571,208.497,32.519z"/>
	<path style="fill:#D2E3F1;" d="M163.071,47.279c-4.166,1.855-9.048-0.019-10.903-4.185l-4.478-10.058
		c-1.855-4.166,0.019-9.048,4.185-10.903c4.166-1.855,9.048,0.019,10.903,4.185l4.478,10.058
		C169.112,40.543,167.239,45.424,163.071,47.279z"/>
	<path style="fill:#D2E3F1;" d="M121.707,71.161c-3.69,2.681-8.854,1.863-11.535-1.827l-6.472-8.908
		c-2.681-3.69-1.863-8.854,1.827-11.535c3.69-2.681,8.854-1.863,11.535,1.827l6.472,8.908
		C126.214,63.316,125.397,68.48,121.707,71.161z"/>
	<path style="fill:#D2E3F1;" d="M86.211,103.121c-3.052,3.39-8.273,3.663-11.663,0.611l-8.182-7.367
		c-3.389-3.052-3.663-8.273-0.611-11.663c3.052-3.39,8.273-3.663,11.663-0.611l8.182,7.367
		C88.99,94.511,89.263,99.732,86.211,103.121z"/>
	<path style="fill:#D2E3F1;" d="M58.137,141.763c-2.28,3.951-7.331,5.303-11.281,3.022l-9.535-5.505
		c-3.95-2.28-5.303-7.331-3.022-11.281s7.331-5.303,11.281-3.022l9.535,5.505C59.064,132.763,60.417,137.813,58.137,141.763z"/>
	<path style="fill:#D2E3F1;" d="M38.709,185.398c-1.409,4.338-6.068,6.711-10.406,5.302l-10.472-3.402
		c-4.337-1.409-6.711-6.068-5.302-10.406s6.068-6.711,10.406-5.302l10.472,3.402C37.745,176.401,40.119,181.06,38.709,185.398z"/>
	<path style="fill:#D2E3F1;" d="M28.779,232.118c-0.477,4.536-4.54,7.826-9.076,7.35l-10.95-1.151
		c-4.535-0.477-7.826-4.54-7.35-9.076c0.477-4.536,4.54-7.826,9.076-7.35l10.95,1.151C25.964,223.518,29.256,227.581,28.779,232.118
		z"/>
	<path style="fill:#D2E3F1;" d="M28.779,279.882c0.477,4.536-2.814,8.599-7.35,9.076l-10.95,1.151
		c-4.535,0.477-8.599-2.813-9.076-7.35c-0.477-4.536,2.814-8.599,7.35-9.076l10.95-1.151
		C24.238,272.056,28.302,275.346,28.779,279.882z"/>
	<path style="fill:#D2E3F1;" d="M38.709,326.602c1.409,4.338-0.965,8.997-5.302,10.406l-10.472,3.402
		c-4.337,1.409-8.996-0.963-10.406-5.302c-1.409-4.338,0.965-8.997,5.302-10.406l10.472-3.402
		C32.641,319.891,37.3,322.264,38.709,326.602z"/>
	<path style="fill:#D2E3F1;" d="M58.137,370.237c2.28,3.951,0.927,9-3.022,11.281l-9.535,5.505c-3.95,2.28-9,0.927-11.281-3.022
		c-2.28-3.95-0.927-9,3.022-11.281l9.535-5.505C50.806,364.934,55.855,366.286,58.137,370.237z"/>
	<path style="fill:#D2E3F1;" d="M86.211,408.879c3.052,3.39,2.778,8.61-0.611,11.663l-8.182,7.367
		c-3.389,3.052-8.61,2.778-11.663-0.611c-3.052-3.39-2.778-8.61,0.611-11.663l8.182-7.367
		C77.938,405.216,83.16,405.489,86.211,408.879z"/>
	<path style="fill:#D2E3F1;" d="M121.707,440.839c3.69,2.681,4.508,7.845,1.827,11.535l-6.472,8.908
		c-2.681,3.69-7.845,4.508-11.535,1.827c-3.69-2.681-4.508-7.845-1.827-11.535l6.472-8.908
		C112.853,438.976,118.017,438.158,121.707,440.839z"/>
	<path style="fill:#D2E3F1;" d="M163.071,464.721c4.166,1.855,6.04,6.736,4.185,10.903l-4.478,10.058
		c-1.855,4.166-6.736,6.04-10.903,4.185s-6.04-6.736-4.185-10.903l4.478-10.058C154.024,464.74,158.905,462.866,163.071,464.721z"/>
	<path style="fill:#D2E3F1;" d="M208.497,479.481c4.462,0.948,7.309,5.334,6.361,9.794l-2.289,10.77
		c-0.948,4.462-5.333,7.309-9.794,6.361s-7.309-5.334-6.361-9.794l2.289-10.77C199.651,481.38,204.036,478.532,208.497,479.481z"/>
</g>
<g>
	<path style="fill:#A5C6E3;" d="M256,484.473c4.562,0,8.258,3.697,8.258,8.258v11.011c0,4.561-3.696,8.258-8.258,8.258
		s-8.258-3.697-8.258-8.258v-11.011C247.742,488.171,251.438,484.473,256,484.473z"/>
	<path style="fill:#A5C6E3;" d="M303.503,479.481c4.462-0.948,8.846,1.899,9.794,6.361l2.289,10.77
		c0.948,4.462-1.899,8.846-6.361,9.794c-4.462,0.948-8.846-1.899-9.794-6.361l-2.289-10.77
		C296.194,484.814,299.041,480.429,303.503,479.481z"/>
	<path style="fill:#A5C6E3;" d="M348.929,464.721c4.166-1.855,9.048,0.019,10.903,4.185l4.478,10.058
		c1.855,4.166-0.019,9.048-4.185,10.903s-9.048-0.019-10.903-4.185l-4.478-10.058C342.888,471.457,344.761,466.576,348.929,464.721z
		"/>
	<path style="fill:#A5C6E3;" d="M390.293,440.839c3.69-2.681,8.854-1.863,11.535,1.827l6.472,8.908
		c2.681,3.69,1.863,8.854-1.827,11.535c-3.69,2.681-8.854,1.863-11.535-1.827l-6.472-8.908
		C385.786,448.684,386.603,443.52,390.293,440.839z"/>
	<path style="fill:#A5C6E3;" d="M425.789,408.879c3.052-3.39,8.273-3.663,11.663-0.611l8.182,7.367
		c3.389,3.052,3.663,8.273,0.611,11.663c-3.052,3.39-8.273,3.663-11.663,0.611l-8.182-7.367
		C423.01,417.489,422.737,412.268,425.789,408.879z"/>
	<path style="fill:#A5C6E3;" d="M453.863,370.237c2.28-3.951,7.331-5.303,11.28-3.022l9.535,5.505
		c3.95,2.28,5.303,7.331,3.022,11.281c-2.28,3.95-7.331,5.303-11.281,3.022l-9.535-5.505
		C452.936,379.237,451.583,374.187,453.863,370.237z"/>
	<path style="fill:#A5C6E3;" d="M473.291,326.602c1.409-4.338,6.068-6.711,10.406-5.302l10.472,3.402
		c4.337,1.409,6.711,6.068,5.302,10.406c-1.409,4.338-6.068,6.711-10.406,5.302l-10.472-3.402
		C474.255,335.599,471.881,330.94,473.291,326.602z"/>
	<path style="fill:#A5C6E3;" d="M483.221,279.882c0.477-4.536,4.541-7.826,9.076-7.35l10.95,1.151
		c4.535,0.477,7.826,4.54,7.35,9.076c-0.477,4.536-4.54,7.826-9.076,7.35l-10.95-1.151
		C486.036,288.482,482.744,284.419,483.221,279.882z"/>
	<path style="fill:#A5C6E3;" d="M483.221,232.118c-0.477-4.536,2.814-8.599,7.35-9.076l10.95-1.151
		c4.535-0.477,8.599,2.813,9.076,7.35c0.477,4.536-2.814,8.599-7.35,9.076l-10.95,1.151
		C487.762,239.944,483.698,236.654,483.221,232.118z"/>
	<path style="fill:#A5C6E3;" d="M473.291,185.398c-1.409-4.338,0.965-8.997,5.302-10.406l10.472-3.402
		c4.337-1.409,8.996,0.963,10.406,5.302c1.41,4.338-0.965,8.997-5.302,10.406l-10.472,3.402
		C479.359,192.109,474.7,189.736,473.291,185.398z"/>
	<path style="fill:#A5C6E3;" d="M453.863,141.763c-2.28-3.951-0.927-9,3.022-11.281l9.535-5.505c3.95-2.28,9-0.927,11.281,3.022
		c2.28,3.95,0.927,9-3.022,11.281l-9.535,5.505C461.194,147.066,456.145,145.714,453.863,141.763z"/>
	<path style="fill:#A5C6E3;" d="M425.789,103.121c-3.052-3.39-2.778-8.61,0.611-11.663l8.182-7.367
		c3.389-3.052,8.61-2.778,11.663,0.611c3.052,3.39,2.778,8.61-0.611,11.663l-8.182,7.367
		C434.061,106.784,428.84,106.511,425.789,103.121z"/>
	<path style="fill:#A5C6E3;" d="M390.293,71.161c-3.69-2.681-4.508-7.845-1.827-11.535l6.472-8.908
		c2.681-3.69,7.845-4.508,11.535-1.827c3.69,2.681,4.508,7.845,1.827,11.535l-6.472,8.908
		C399.147,73.024,393.983,73.843,390.293,71.161z"/>
	<path style="fill:#A5C6E3;" d="M348.929,47.279c-4.166-1.855-6.04-6.736-4.185-10.903l4.478-10.058
		c1.855-4.166,6.736-6.04,10.903-4.185c4.166,1.855,6.04,6.736,4.185,10.903l-4.478,10.058
		C357.976,47.26,353.095,49.134,348.929,47.279z"/>
	<path style="fill:#A5C6E3;" d="M303.503,32.519c-4.462-0.948-7.309-5.334-6.361-9.794l2.289-10.77
		c0.948-4.462,5.332-7.309,9.794-6.361c4.462,0.948,7.309,5.334,6.361,9.794l-2.289,10.77
		C312.349,30.62,307.964,33.468,303.503,32.519z"/>
</g>
<g>
	<circle style="fill:#FFFFFF;" cx="256" cy="256" r="8.258"/>
	<circle style="fill:#FFFFFF;" cx="256" cy="385.376" r="8.258"/>
	<circle style="fill:#FFFFFF;" cx="289.032" cy="352.344" r="8.258"/>
	<circle style="fill:#FFFFFF;" cx="347.477" cy="347.477" r="8.258"/>
	<circle style="fill:#FFFFFF;" cx="347.477" cy="164.512" r="8.258"/>
	<circle style="fill:#FFFFFF;" cx="126.624" cy="256" r="8.258"/>
	<circle style="fill:#FFFFFF;" cx="164.512" cy="347.477" r="8.258"/>
</g>
<g>
</g>
<g>
</g>
<g>
</g>
<g>
</g>
<g>
</g>
<g>
</g>
<g>
</g>
<g>
</g>
<g>
</g>
<g>
</g>
<g>
</g>
<g>
</g>
<g>
</g>
<g>
</g>
<g>
</g>
</svg>
