<svg xmlns="http://www.w3.org/2000/svg" width="110" height="110" viewBox="0 0 110 110">
  <g id="Group_7" data-name="Group 7" transform="translate(-585 -1124)">
    <rect id="Rounded_Rectangle_528" data-name="Rounded Rectangle 528" width="110" height="110" rx="35" transform="translate(585 1124)" fill="#ff4361" opacity="0.102"/>
    <path id="Forma_1" data-name="Forma 1" d="M641.227,1208c-.046,0-.091,0-.137,0a25.107,25.107,0,0,1-5.693-.658.948.948,0,0,1-.706-1.138.934.934,0,0,1,1.126-.713,23.463,23.463,0,0,0,4.488.586V1204.2a.94.94,0,1,1,1.879,0v1.869a23.112,23.112,0,0,0,9.825-2.7l-.926-1.621a.954.954,0,0,1,.344-1.3.932.932,0,0,1,1.283.347l.923,1.618a23.807,23.807,0,0,0,7.3-7.384l-1.6-.934a.956.956,0,0,1-.344-1.3.933.933,0,0,1,1.283-.347l1.6.937a23.777,23.777,0,0,0,2.677-10.089H662.7a.95.95,0,0,1,0-1.9h1.856a23.769,23.769,0,0,0-2.677-10.087l-1.6.936a.924.924,0,0,1-.469.128.937.937,0,0,1-.814-.475.956.956,0,0,1,.342-1.3l1.6-.933a23.809,23.809,0,0,0-7.3-7.385l-.923,1.618a.934.934,0,0,1-.815.475.923.923,0,0,1-.469-.127.956.956,0,0,1-.345-1.3l.927-1.622a23.108,23.108,0,0,0-9.825-2.7v1.871a.94.94,0,1,1-1.88,0v-1.877c-.276.013-.56.031-.868.054l-1.009.078a23.759,23.759,0,0,0-2.612.454.937.937,0,0,1-1.126-.714.948.948,0,0,1,.706-1.138,25.456,25.456,0,0,1,3.029-.509v-1.1h-1.409a2.375,2.375,0,0,1,0-4.749h8.457a2.375,2.375,0,0,1,0,4.749h-1.409v1.132a25,25,0,0,1,9.653,3.234c.02.011.041.009.06.021s.029.03.047.042a25.473,25.473,0,0,1,4.519,3.388l2.019-2.039-1.329-1.345,3.987-4.03,3.986,4.03-3.986,4.03-1.329-1.343-2.018,2.04a25.794,25.794,0,0,1,3.35,4.568c.013.017.03.029.041.047s.01.041.02.061a25.8,25.8,0,0,1,0,25.529c-.01.02-.009.041-.02.06s-.039.049-.057.075a25.7,25.7,0,0,1-9.184,9.273c-.018.012-.028.03-.047.041a.85.85,0,0,1-.088.038,25,25,0,0,1-12.422,3.394c-.008,0-.014,0-.023,0S641.233,1208,641.227,1208Zm20.461-47.814,1.33,1.345,1.328-1.345-1.328-1.344Zm-19.5-3.461v-2.87h3.289a.475.475,0,0,0,0-.95h-8.457a.475.475,0,0,0,0,.95H640.3v2.87c.113-.005.216,0,.325-.007.154,0,.308-.013.462-.013l.071,0,.082,0C641.544,1156.7,641.856,1156.706,642.183,1156.72Zm-15.975,42.729a.95.95,0,0,1,0-1.9h6.577a.95.95,0,0,1,0,1.9Zm-5.638-6.65a.95.95,0,0,1,0-1.9h12.216a.95.95,0,0,1,0,1.9Zm18.835-6.692a3.409,3.409,0,0,1,.4-5.131l12.165-8.9a.934.934,0,0,1,1.215.1.958.958,0,0,1,.1,1.228l-8.8,12.3a3.334,3.334,0,0,1-2.449,1.386c-.089.007-.176.011-.264.011A3.323,3.323,0,0,1,639.405,1186.107Zm1.5-3.595a1.485,1.485,0,0,0,.979,2.682,1.466,1.466,0,0,0,1.075-.608l5.367-7.5Zm-25.976,3.636a.95.95,0,0,1,0-1.9h17.854a.95.95,0,0,1,0,1.9Zm3.759-6.649a.95.95,0,0,1,0-1.9h14.095a.95.95,0,0,1,0,1.9Zm4.7-6.651a.95.95,0,0,1,0-1.9h9.4a.95.95,0,0,1,0,1.9Zm4.7-6.65a.95.95,0,0,1,0-1.9h4.7a.95.95,0,0,1,0,1.9Z" fill="#ff4361"/>
  </g>
</svg>
