<?xml version="1.0" encoding="iso-8859-1"?>
<!-- Generator: Adobe Illustrator 19.0.0, SVG Export Plug-In . SVG Version: 6.00 Build 0)  -->
<svg version="1.1" id="Layer_1" xmlns="http://www.w3.org/2000/svg" xmlns:xlink="http://www.w3.org/1999/xlink" x="0px" y="0px"
	 viewBox="0 0 512 512" style="enable-background:new 0 0 512 512;" xml:space="preserve">
<g>
	<path style="fill:#F9B233;" d="M88.173,226.472c-2.148,0-4.296-0.819-5.936-2.459c-3.278-3.278-3.278-8.593,0-11.869
		L244.442,49.938c3.279-3.278,8.593-3.278,11.871,0c3.278,3.278,3.278,8.592,0,11.869L94.108,224.014
		C92.469,225.652,90.321,226.472,88.173,226.472z"/>
	<path style="fill:#F9B233;" d="M274.118,40.527c-2.148,0-4.296-0.819-5.936-2.459c-3.278-3.278-3.278-8.592,0-11.869l23.74-23.74
		c3.279-3.278,8.593-3.278,11.871,0c3.278,3.278,3.278,8.592,0,11.869l-23.74,23.74C278.414,39.707,276.265,40.527,274.118,40.527z"
		/>
</g>
<g>
	<path style="fill:#FA9647;" d="M479.867,246.277c-2.148,0-4.296-0.819-5.936-2.459c-3.278-3.278-3.278-8.593,0-11.869l23.74-23.74
		c3.279-3.278,8.593-3.278,11.871,0c3.278,3.278,3.278,8.592,0,11.869l-23.74,23.74
		C484.163,245.456,482.014,246.277,479.867,246.277z"/>
	<path style="fill:#FA9647;" d="M293.922,432.222c-2.148,0-4.296-0.819-5.936-2.459c-3.278-3.278-3.278-8.593,0-11.869
		l162.205-162.206c3.279-3.278,8.593-3.278,11.871,0c3.278,3.278,3.278,8.593,0,11.869L299.856,429.763
		C298.218,431.403,296.069,432.222,293.922,432.222z"/>
	<path style="fill:#FA9647;" d="M497.051,141.564c-8.741-8.741-22.913-8.741-31.653,0l-47.48,47.48L32.778,479.222
		c43.704,43.704,114.564,43.704,158.268,0c0,0,297.263-297.263,306.004-306.004C505.792,164.477,505.792,150.305,497.051,141.564z"
		/>
</g>
<path style="fill:#F9B233;" d="M159.393,447.568l64.111-95.765l86.243-54.59l108.169-108.169c-8.74,8.74-22.913,8.74-31.653,0
	c-8.74-8.74-8.74-22.913,0-31.653L497.051,46.604c8.74-8.74,8.74-22.913,0-31.653c-8.74-8.74-22.913-8.74-31.653,0L322.956,157.39
	c-8.74,8.74-22.913,8.74-31.653,0c-8.74-8.74-8.74-22.913,0-31.653l79.134-79.134c8.74-8.74,8.74-22.913,0-31.653
	c-8.74-8.74-22.913-8.74-31.653,0c-8.74,8.74-306.006,306.004-306.006,306.004c-43.704,43.704-43.704,114.564,0,158.268
	C59.001,505.444,115.688,491.272,159.393,447.568z"/>
<polygon style="fill:#FBC566;" points="309.748,297.213 262.267,297.213 262.267,249.733 214.787,249.733 214.787,202.251 
	64.433,352.607 159.393,447.567 "/>
<path style="fill:#FD5F6E;" d="M111.913,332.94c-37.084,0-67.148,30.063-67.148,67.148s30.063,67.148,67.148,67.148l33.574-67.148
	L111.913,332.94z"/>
<path style="fill:#FE4382;" d="M111.913,332.94v134.295c37.084,0,67.148-30.063,67.148-67.148S148.997,332.94,111.913,332.94z"/>
<path style="fill:#FEECCC;" d="M111.913,366.513l-17.16,33.574l17.16,33.574c18.542,0,33.574-15.031,33.574-33.574
	C145.486,381.546,130.454,366.513,111.913,366.513z"/>
<path style="fill:#FFFFFF;" d="M78.339,400.087c0,18.542,15.031,33.574,33.574,33.574v-67.148
	C93.37,366.513,78.339,381.546,78.339,400.087z"/>
<g>
</g>
<g>
</g>
<g>
</g>
<g>
</g>
<g>
</g>
<g>
</g>
<g>
</g>
<g>
</g>
<g>
</g>
<g>
</g>
<g>
</g>
<g>
</g>
<g>
</g>
<g>
</g>
<g>
</g>
</svg>
