<?xml version="1.0" encoding="iso-8859-1"?>
<!-- Generator: Adobe Illustrator 18.0.0, SVG Export Plug-In . SVG Version: 6.00 Build 0)  -->
<!DOCTYPE svg PUBLIC "-//W3C//DTD SVG 1.1//EN" "http://www.w3.org/Graphics/SVG/1.1/DTD/svg11.dtd">
<svg xmlns="http://www.w3.org/2000/svg" xmlns:xlink="http://www.w3.org/1999/xlink" version="1.1" id="Capa_1" x="0px" y="0px" viewBox="0 0 202.863 202.863" style="enable-background:new 0 0 202.863 202.863;" xml:space="preserve" width="512px" height="512px">
<path d="M194.725,1.432H8.137C3.642,1.432,0,5.074,0,9.568v132.348c0,4.494,3.642,8.137,8.137,8.137h147.502l47.225,51.379v-59.516  v-32.693V9.568C202.863,5.074,199.221,1.432,194.725,1.432z M74.769,32.949c11.777,0,21.327,9.544,21.327,21.328  c0,11.776-9.55,21.325-21.327,21.325c-11.782,0-21.327-9.549-21.327-21.325C53.441,42.493,62.986,32.949,74.769,32.949z   M115.151,118.949h-3.081H34.381v-12.426c0-22.303,18.084-29.494,40.388-29.494c22.305,0,40.383,7.191,40.383,29.494V118.949z   M139.896,59.685c8.122,0,14.7,6.578,14.7,14.695c0,8.116-6.578,14.699-14.7,14.699c-8.11,0-14.694-6.583-14.694-14.699  C125.202,66.263,131.786,59.685,139.896,59.685z M167.732,118.949h-38.581v-12.426c0-5.721-0.877-10.648-2.323-14.896  c3.896-1.094,8.344-1.564,13.068-1.564c15.372,0,27.836,4.951,27.836,20.323V118.949z" fill="#006DF0"/>
<g>
</g>
<g>
</g>
<g>
</g>
<g>
</g>
<g>
</g>
<g>
</g>
<g>
</g>
<g>
</g>
<g>
</g>
<g>
</g>
<g>
</g>
<g>
</g>
<g>
</g>
<g>
</g>
<g>
</g>
</svg>
