<?xml version="1.0" encoding="UTF-8" standalone="no"?>
<!-- Generator: Adobe Illustrator 19.0.0, SVG Export Plug-In . SVG Version: 6.00 Build 0)  -->

<svg
   xmlns:dc="http://purl.org/dc/elements/1.1/"
   xmlns:cc="http://creativecommons.org/ns#"
   xmlns:rdf="http://www.w3.org/1999/02/22-rdf-syntax-ns#"
   xmlns:svg="http://www.w3.org/2000/svg"
   xmlns="http://www.w3.org/2000/svg"
   xmlns:sodipodi="http://sodipodi.sourceforge.net/DTD/sodipodi-0.dtd"
   xmlns:inkscape="http://www.inkscape.org/namespaces/inkscape"
   version="1.1"
   id="Layer_1"
   x="0px"
   y="0px"
   viewBox="0 0 562.68996 454.51231"
   xml:space="preserve"
   inkscape:version="0.91 r13725"
   sodipodi:docname="twitter-2.svg"
   width="562.68994"
   height="454.5123"><metadata
     id="metadata39"><rdf:RDF><cc:Work
         rdf:about=""><dc:format>image/svg+xml</dc:format><dc:type
           rdf:resource="http://purl.org/dc/dcmitype/StillImage" /><dc:title></dc:title></cc:Work></rdf:RDF></metadata><defs
     id="defs37" /><sodipodi:namedview
     pagecolor="#ffffff"
     bordercolor="#666666"
     borderopacity="1"
     objecttolerance="10"
     gridtolerance="10"
     guidetolerance="10"
     inkscape:pageopacity="0"
     inkscape:pageshadow="2"
     inkscape:window-width="1280"
     inkscape:window-height="751"
     id="namedview35"
     showgrid="false"
     inkscape:zoom="0.46135471"
     inkscape:cx="-6.934796"
     inkscape:cy="227.25616"
     inkscape:window-x="13"
     inkscape:window-y="0"
     inkscape:window-maximized="0"
     inkscape:current-layer="Layer_1"
     fit-margin-top="0"
     fit-margin-left="0"
     fit-margin-right="0"
     fit-margin-bottom="0" /><path
     style="fill:#65bbf2"
     d="m 392.74327,0 c -65.2124,0.9878 -116.5923,57.3078 -116.5923,122.5202 l 0,15.8092 C 159.55867,117.5801 102.25087,85.9617 39.014065,19.7615 c -37.5462998,73.117 3.9523,134.3771 49.4032,167.9722 -30.6306,0 -56.32,-3.9523 -76.0815,-21.7371 -1.9756,-0.9878 -3.9522998,0 -2.9644998,1.9767 16.7969998,61.2601 74.1047998,105.7232 118.5679048,118.5679 -40.510805,0 -67.189105,5.9279 -95.843005,-11.8569 -1.9756,-0.9878 -3.9523,0 -2.9645,1.9756 21.7371,60.2723 65.2124,79.046 128.449205,79.046 -31.6184,23.7138 -74.104805,47.4276 -154.1386048,49.4032 -2.96450007,0 -4.9401,3.9523 -1.9756,5.9279 29.6416998,24.7016 102.7598048,43.4753 205.5185048,43.4753 168.96,0 306.3016,-150.1863 306.3016,-335.9444 l 0,-9.8802 c 26.6783,-9.8802 41.4986,-33.594 49.4032,-57.3078 0,-0.9878 -0.9878,-1.9756 -1.9767,-1.9756 l -56.32,19.7615 c -0.9878,0 -1.9756,-1.9756 -0.9878,-2.9645 23.716,-18.7737 41.5008,-42.4875 49.4054,-65.2135 0,0 -0.9878,-0.9878 -1.9767,-0.9878 -26.6783,10.8691 -52.3677,21.7371 -72.1292,27.6661 -2.9645,0.9878 -6.9168,0.9878 -9.8802,-0.9878 C 455.98007,19.7615 417.44487,0 392.74327,0"
     id="path3"
     inkscape:connector-curvature="0" /><g
     id="g5"
     transform="translate(25.578148,-28.51235)" /><g
     id="g7"
     transform="translate(25.578148,-28.51235)" /><g
     id="g9"
     transform="translate(25.578148,-28.51235)" /><g
     id="g11"
     transform="translate(25.578148,-28.51235)" /><g
     id="g13"
     transform="translate(25.578148,-28.51235)" /><g
     id="g15"
     transform="translate(25.578148,-28.51235)" /><g
     id="g17"
     transform="translate(25.578148,-28.51235)" /><g
     id="g19"
     transform="translate(25.578148,-28.51235)" /><g
     id="g21"
     transform="translate(25.578148,-28.51235)" /><g
     id="g23"
     transform="translate(25.578148,-28.51235)" /><g
     id="g25"
     transform="translate(25.578148,-28.51235)" /><g
     id="g27"
     transform="translate(25.578148,-28.51235)" /><g
     id="g29"
     transform="translate(25.578148,-28.51235)" /><g
     id="g31"
     transform="translate(25.578148,-28.51235)" /><g
     id="g33"
     transform="translate(25.578148,-28.51235)" /></svg>