<?xml version="1.0" encoding="utf-8"?>
<!-- Generator: Adobe Illustrator 16.0.0, SVG Export Plug-In . SVG Version: 6.00 Build 0)  -->
<!DOCTYPE svg PUBLIC "-//W3C//DTD SVG 1.1//EN" "http://www.w3.org/Graphics/SVG/1.1/DTD/svg11.dtd">
<svg version="1.1" id="Layer_1" xmlns="http://www.w3.org/2000/svg" xmlns:xlink="http://www.w3.org/1999/xlink" x="0px" y="0px"
	 width="141.25px" height="86.987px" viewBox="0 -0.018 141.25 86.987" enable-background="new 0 -0.018 141.25 86.987"
	 xml:space="preserve">
<path opacity="0.5" fill="#FFA64D" enable-background="new    " d="M38.03,51.597c4.757-4.837,65.483-50.521,66.519-49.484
	c0.797,0.797-44.355,62.241-49.139,67.051c-4.783,4.81-12.543,4.757-17.327-0.08C33.273,64.247,33.273,56.407,38.03,51.597z"/>
<path opacity="0.3" fill="#FFA64D" enable-background="new    " d="M40.714,49.444c5.847-3.428,65.217-26.974,65.935-25.699
	c0.558,0.983-47.836,43.797-53.709,47.198c-5.847,3.402-13.314,1.355-16.69-4.597C32.874,60.446,34.867,52.873,40.714,49.444z"/>
<path opacity="0.3" fill="#FFA64D" enable-background="new    " d="M57.537,66.399C60.938,60.5,84.271,0.705,83.022-0.013
	C82.04-0.571,39.571,48.195,36.169,54.095c-3.375,5.9-1.329,13.42,4.571,16.796C46.614,74.292,54.135,72.273,57.537,66.399z"/>
<path opacity="0.2" fill="#FFA64D" enable-background="new    " d="M43.558,48.195c6.538-1.78,61.363-8.558,61.762-7.149
	c0.292,1.09-48.952,29.313-55.49,31.093c-6.538,1.781-13.235-2.152-14.962-8.77C33.14,56.752,37.046,49.976,43.558,48.195z"/>
<path opacity="0.1" fill="#FFA64D" enable-background="new    " d="M43.558,48.195c6.538-1.78,50.839,8.238,51.211,9.621
	c0.292,1.089-38.429,12.517-44.966,14.297c-6.538,1.781-13.234-2.152-14.962-8.77C33.14,56.752,37.046,49.976,43.558,48.195z"/>
<path opacity="0.1" fill="#FFA64D" enable-background="new    " d="M58.786,63.503c1.78-6.591-8.186-51.211-9.594-51.583
	c-1.09-0.292-12.411,38.694-14.165,45.285c-1.754,6.591,2.152,13.341,8.717,15.042C50.281,74,57.032,70.094,58.786,63.503z"/>
<path opacity="0.2" fill="#FFA64D" enable-background="new    " d="M58.786,63.503c1.78-6.591,8.478-61.815,7.096-62.188
	c-1.09-0.292-29.074,49.298-30.854,55.916c-1.754,6.591,2.152,13.341,8.717,15.042C50.281,74.027,57.032,70.094,58.786,63.503z"/>
<path fill="#333333" d="M50.76,45.378c-2.844,0-6.325,0.771-9.169,3.721c0-0.771,0.213-1.754,0.213-2.073
	c0-0.558-0.425-0.212-0.558-0.983h-5.023l-6.989,39.943c0,0.319,0.319,0.665,0.558,0.983h4.917l2.843-15.068
	c2.179,2.631,4.704,3.269,6.99,3.269c11.135,0,16.052-11.348,16.052-19.32C60.593,49.949,57.749,45.378,50.76,45.378z
	 M44.647,70.041c-3.615,0-5.688-2.498-5.688-5.687c0-0.319,0.425-2.95,0.665-4.465c0.771-5.793,4.598-9.381,9.381-9.381
	c4.146,0,5.581,2.844,5.581,6.112C54.586,61.297,51.849,70.041,44.647,70.041z"/>
<path fill="#333333" d="M27.958,35.439c-2.073-0.665-5.023-0.983-7.202-0.983c-6.325,0-16.052,3.163-16.052,12.677
	c0,9.487,15.174,10.046,15.174,16.371c0,5.129-5.022,6.325-8.504,6.325c-2.286,0-5.129-0.877-7.309-1.967
	c-0.771-0.319-1.647-1.302-1.86-1.302c-0.319,0-0.877,0.319-1.196,0.319L0,72.432c1.86,1.648,7.308,2.737,10.045,2.737
	c4.811,0,12.677-1.541,15.175-8.504c0.425-1.409,0.877-2.95,0.877-4.146c0-9.594-15.175-10.471-15.175-16.583
	c0-5.129,5.448-6.006,8.637-6.006c1.967,0,2.844-0.106,5.235,0.771c0.771,0.213,2.073,1.409,2.392,1.409
	c0.212,0,0.771-0.319,0.983-0.558c0.425-1.647,1.089-5.023,1.089-5.235C29.26,35.864,27.958,35.439,27.958,35.439z"/>
<path fill="#333333" d="M79.594,45.378c-3.614,0-6.431,0.558-10.258,2.843c0,0.213,0,0.425-0.106,0.665
	c-0.213,1.302-0.665,3.614-0.665,3.827c0,0.319,0.771,0.877,0.983,0.877c0.319,0,2.285-1.542,3.614-2.073
	c0.771-0.425,1.86-0.771,2.737-0.877c0.771-0.212,2.286-0.212,2.498-0.212c1.648,0,3.721,0.106,4.146,2.843v2.392
	c-0.106,0.106-0.106,0.319-0.212,0.319c-5.9,1.408-13.873-0.319-18.018,7.654c-0.665,1.302-0.983,3.269-0.983,4.704
	c0,5.129,4.252,6.883,8.079,6.883c2.631,0,5.448-0.983,8.079-3.269c0,0.771-0.106,1.302-0.106,1.541c0,0.319,0.319,0.771,0.665,1.09
	h4.917c0.319-3.72,3.481-19.321,3.481-21.287C88.417,47.345,84.617,45.378,79.594,45.378z M81.428,61.191
	c-0.665,5.581-4.465,8.85-8.398,8.85c-1.967,0-3.614-0.771-3.614-2.95c0-6.006,7.096-5.235,10.258-5.899
	c0.425-0.106,1.196-0.106,1.754-0.213V61.191z"/>
<path fill="#333333" d="M110.688,45.485c-2.392,0-5.023,1.196-6.989,3.481c0.106-0.771,0.319-1.86,0.319-2.179
	c0-0.212-0.425-0.558-0.665-0.771H98.33l-4.81,27.506c0.106,0.319,0.425,0.665,0.665,0.983h4.917
	c0.771-4.465,1.249-9.036,2.285-13.314c0.744-3.083,2.95-10.365,7.867-10.365c0.212,0,1.302,0.106,1.966,0.319
	c0.213,0,0.319,0.425,0.665,0.425c0.212,0,0.877-0.319,1.089-0.558c0.319-1.408,0.877-4.358,0.877-4.597
	C113.851,45.591,111.14,45.485,110.688,45.485z"/>
<path fill="#333333" d="M141.25,47.106c-0.106-0.319-0.212-0.771-0.425-1.09h-5.793L122.7,57.151l-0.106-0.106l4.04-23.147
	c-0.106-0.319-0.425-0.665-0.665-0.983h-4.917l-7.202,40.714c0.212,0.319,0.558,0.664,0.771,0.877h4.917l2.179-12.012l8.956,12.012
	h6.325c0.212-0.319,0.425-0.771,0.558-1.09l-10.577-13.527L141.25,47.106z"/>
</svg>
